<svg width="25" height="24" viewBox="0 0 25 24" fill="none" xmlns="http://www.w3.org/2000/svg">
<path d="M16.4601 10.8301H13.4001L12.6401 13.1201H14.9301C15.7701 13.1201 16.4601 13.8001 16.4601 14.6501C16.4601 15.4901 15.7801 16.1801 14.9301 16.1801H12.6401" stroke="#031D33" stroke-width="1.5" stroke-linecap="round" stroke-linejoin="round"/>
<path d="M10.04 16.17V10.8301L8.54004 12.5001" stroke="#031D33" stroke-width="1.5" stroke-linecap="round" stroke-linejoin="round"/>
<path d="M14.48 4.46997L12.5 2" stroke="#031D33" stroke-width="1.5" stroke-linecap="round" stroke-linejoin="round"/>
<path d="M19.5899 7.79999C20.6999 9.27999 21.3899 11.11 21.3899 13.11C21.3899 18.02 17.4099 22 12.4999 22C7.58988 22 3.60986 18.02 3.60986 13.11C3.60986 8.19999 7.58988 4.21997 12.4999 4.21997C13.1799 4.21997 13.8399 4.31002 14.4799 4.46002" stroke="#031D33" stroke-width="1.5" stroke-linecap="round" stroke-linejoin="round"/>
</svg>
