<svg width="25" height="24" viewBox="0 0 25 24" fill="none" xmlns="http://www.w3.org/2000/svg">
<path d="M22.8816 16.687C23.4315 16.4112 23.857 16.0291 24.1547 15.5402C24.4524 15.0514 24.6 14.4921 24.6 13.8655C24.6 13.2317 24.4632 12.6733 24.1862 12.1938C23.9192 11.7052 23.5337 11.3265 23.0321 11.0588C22.5299 10.7908 21.9438 10.6587 21.2769 10.6587C20.4041 10.6587 19.6774 10.8852 19.1045 11.3444V8.16796H23.4157C23.6159 8.16796 23.7847 8.12524 23.9043 8.02242C24.0267 7.91711 24.0802 7.76401 24.0802 7.58252C24.0802 7.40103 24.0267 7.24794 23.9043 7.14263C23.7847 7.03981 23.6159 6.99709 23.4157 6.99709H18.3658C18.1639 6.99709 17.9938 7.04409 17.8742 7.15576C17.7534 7.26864 17.7014 7.43122 17.7014 7.62413V12.4508C17.7014 12.6306 17.7514 12.7831 17.8679 12.8889C17.9825 12.993 18.1447 13.0362 18.3361 13.0362C18.468 13.0362 18.5883 13.0105 18.6941 12.9556L18.6941 12.9557L18.6969 12.9541C18.8038 12.8942 18.8964 12.8233 18.9735 12.7411L18.9753 12.739C19.2535 12.4255 19.5631 12.1994 19.9038 12.0579C20.2573 11.9152 20.6404 11.8434 21.0542 11.8434C21.7267 11.8434 22.2431 12.0401 22.6163 12.4234C22.9919 12.8092 23.1821 13.3055 23.1821 13.9209C23.1821 14.5155 22.9838 14.9868 22.5909 15.345C22.1982 15.7029 21.6554 15.8875 20.9502 15.8875C19.9991 15.8875 19.1424 15.6296 18.3771 15.114L18.3772 15.1139L18.373 15.1114C18.1902 15.001 18.0085 14.957 17.835 15.0032L17.835 15.0032L17.8332 15.0037C17.6814 15.0474 17.5617 15.1363 17.4789 15.2688C17.3962 15.4012 17.3676 15.5501 17.3905 15.7104L17.3901 15.7104L17.392 15.7186C17.4291 15.8803 17.5387 16.0102 17.7003 16.1117C18.1552 16.4509 18.6653 16.7004 19.2297 16.8604L19.2301 16.8605C19.8031 17.0201 20.3815 17.1 20.965 17.1C21.7 17.1 22.34 16.9637 22.8816 16.687ZM22.8816 16.687C22.8815 16.6871 22.8814 16.6871 22.8813 16.6872L22.8365 16.5978M22.8816 16.687C22.8817 16.687 22.8819 16.6869 22.882 16.6868L22.8365 16.5978M22.8365 16.5978C22.3117 16.8659 21.6879 17 20.965 17C20.3907 17 19.8214 16.9214 19.257 16.7642L19.1045 11.474C19.6657 10.9971 20.3899 10.7587 21.2769 10.7587C21.9305 10.7587 22.4998 10.8881 22.985 11.147C23.4702 11.4059 23.8415 11.7712 24.099 12.2427C24.3663 12.705 24.5 13.246 24.5 13.8655C24.5 14.4757 24.3564 15.0166 24.0693 15.4882C23.7821 15.9598 23.3712 16.3296 22.8365 16.5978ZM0.465364 16.7737L0.465336 16.7738L0.466693 16.7759C0.585429 16.9644 0.767225 17.0584 0.996888 17.0584C1.16601 17.0584 1.31324 17.0289 1.43194 16.9624C1.54258 16.9004 1.64526 16.814 1.74048 16.7053L1.74049 16.7053L1.74162 16.704L3.73007 14.3529L5.73254 16.7036C5.73263 16.7037 5.73271 16.7038 5.7328 16.7039C5.92916 16.9381 6.17949 17.0584 6.47756 17.0584C6.71499 17.0584 6.90283 16.9661 7.02261 16.7759L7.02264 16.7759L7.02394 16.7737C7.08625 16.669 7.10537 16.5545 7.08044 16.4352C7.05613 16.3188 6.99123 16.2036 6.89582 16.0897L6.89583 16.0897L6.89496 16.0887L4.57486 13.3941L6.71653 10.9212L6.71654 10.9212L6.71722 10.9204C6.81688 10.8029 6.88556 10.6859 6.91281 10.57C6.94061 10.4518 6.9241 10.3385 6.86114 10.2369C6.80873 10.1402 6.73699 10.064 6.64526 10.0126C6.5531 9.96098 6.44636 9.93745 6.32903 9.93745C6.16998 9.93745 6.02929 9.96684 5.91207 10.0316C5.79735 10.086 5.69325 10.1749 5.59851 10.2926L3.74495 12.4629L1.90576 10.2928C1.81099 10.175 1.70685 10.086 1.59207 10.0316C1.47394 9.96638 1.32785 9.93745 1.16027 9.93745C0.928371 9.93745 0.746942 10.038 0.629381 10.2349C0.565676 10.3366 0.548296 10.4496 0.576622 10.5671C0.604114 10.6812 0.673276 10.7948 0.77302 10.9076L2.91478 13.3941L0.610081 16.0877C0.609893 16.0879 0.609706 16.0881 0.609519 16.0883C0.509472 16.2016 0.440461 16.3164 0.413113 16.4327C0.384942 16.5526 0.402529 16.6681 0.465364 16.7737ZM8.89126 9.45807L8.89128 9.45811L8.8937 9.4566L10.2558 8.60862V15.8043H8.42497C8.22536 15.8043 8.05704 15.8456 7.93755 15.9455C7.81462 16.0482 7.76057 16.1981 7.76057 16.3759C7.76057 16.5611 7.81348 16.7174 7.93541 16.8252C8.055 16.931 8.22423 16.9752 8.42497 16.9752H13.3561C13.5568 16.9752 13.7261 16.931 13.8457 16.8252C13.9676 16.7174 14.0205 16.5611 14.0205 16.3759C14.0205 16.1981 13.9664 16.0482 13.8435 15.9455C13.724 15.8456 13.5557 15.8043 13.3561 15.8043H11.6738V7.48544C11.6738 7.30137 11.6188 7.14716 11.4895 7.04807C11.3799 6.94767 11.2419 6.9 11.0836 6.9C10.9515 6.9 10.8204 6.92576 10.6909 6.97615C10.5667 7.02447 10.4384 7.08687 10.306 7.16295L10.306 7.16291L10.3034 7.1645L8.25372 8.42664L8.25371 8.42662L8.25212 8.42764C8.08094 8.53754 7.9641 8.67222 7.92648 8.83616L7.92621 8.8361L7.9251 8.84341C7.90168 8.99648 7.9314 9.14085 8.0134 9.27212C8.09518 9.40304 8.21263 9.49558 8.36146 9.54904L8.36134 9.54937L8.36949 9.55154C8.54052 9.59718 8.71654 9.56004 8.89126 9.45807ZM15.0111 16.7935L15.0111 16.7935L16.2551 16.7226L16.3256 16.7935C16.3256 16.7935 16.3256 16.7935 16.3256 16.7934C16.4942 16.6256 16.5779 16.4146 16.5779 16.1678C16.5779 15.9222 16.4949 15.7153 16.3257 15.5561C16.1643 15.3853 15.9432 15.305 15.6758 15.305C15.4076 15.305 15.1828 15.3857 15.0123 15.5549C14.8423 15.7142 14.7589 15.9216 14.7589 16.1678C14.7589 16.4146 14.8426 16.6256 15.0111 16.7935Z" fill="#2F2E31" stroke="#2F2E31" stroke-width="0.2"/>
</svg>
